<?xml version="1.0" encoding="UTF-8"?>
<!-- Created with Inkscape (http://www.inkscape.org/) -->
<svg width="87.049mm" height="75.208mm" version="1.1" viewBox="0 0 87.049 75.208" xml:space="preserve"
    xmlns="http://www.w3.org/2000/svg" xmlns:xlink="http://www.w3.org/1999/xlink">
    <defs>
        <linearGradient id="linearGradient83">
            <stop stop-color="#f00" offset="0" />
            <stop offset=".72919" />
        </linearGradient>
        <linearGradient id="linearGradient89" x1="53.948" x2="87.882" y1="177.13" y2="177.13"
            gradientTransform="matrix(-.32274 -.67573 .69876 -.32242 -8.3215 236.6)" gradientUnits="userSpaceOnUse"
            xlink:href="#linearGradient83" />
        <linearGradient id="linearGradient90" x1="53.948" x2="87.882" y1="177.13" y2="177.13"
            gradientTransform="matrix(.25462 -.54054 -.55127 -.25792 182.3 217.97)" gradientUnits="userSpaceOnUse"
            xlink:href="#linearGradient83" />
    </defs>
    <g transform="translate(-55.27 -80.969)">
        <g>
            <path transform="matrix(1 0 0 .51014 10.396 74.166)"
                d="m101.77 142.49-6.4877 0.85067-4.2943 6.3471-5.189-3.986-7.5246 1.4516-0.85066-6.4877-6.3471-4.2943 3.986-5.189-1.4516-7.5246 6.4877-0.85066 4.2943-6.3471 5.189 3.986 7.5246-1.4516 0.85066 6.4877 6.3471 4.2943-3.986 5.189z"
                fill="#f60" stroke-width=".26458" />
            <path transform="matrix(.65979 0 0 .33831 40.105 95.464)"
                d="m101.77 142.49-6.4877 0.85067-4.2943 6.3471-5.189-3.986-7.5246 1.4516-0.85066-6.4877-6.3471-4.2943 3.986-5.189-1.4516-7.5246 6.4877-0.85066 4.2943-6.3471 5.189 3.986 7.5246-1.4516 0.85066 6.4877 6.3471 4.2943-3.986 5.189z"
                fill="#fc0" stroke-width=".26458" />
            <path class="cascoLogo"
                d="m96.361 126.97-1.6989-2.3758-0.04733-1.996c-0.57984-0.0635-0.88168-1.4885-1.2782-2.4496 0.09455-1.7799 0.27494-3.5056 0.04733-5.4889-0.71014-0.38281-1.4203-0.67953-2.1304-1.4062-0.91531-1.4033-1.505-2.7279-1.8937-4.2641 0.32886-0.89217 0.41376-2.1508 1.2569-3.1421 0.97874-1.1507 1.8487-2.0592 2.3885-2.9364l0.23671-2.2681 0.94686 2.2228c-0.28036 0.83159-0.47464 1.7298-0.89952 2.4496l-1.3256 1.4062-0.28405 1.4516c0.54015 1.5018 1.0006 2.3745 1.3256 2.1774 1.1773-1.4572 2.3412-3.0245 4.1457-3.8182 0.63993-0.20492 1.0664-0.42218 1.7122-0.38769 0.77307 0.0412 1.7143 0.37966 2.4963 0.7877 1.26 0.84028 2.0519 1.7527 2.9134 3.146l0.8995 0.0907c0.69269-0.71552 0.84417-1.8763 0.33142-3.5836-1.0387-0.92806-1.8296-2.0684-2.1304-3.629l0.75749-2.0867c-0.15691 2.7362 1.4732 3.5834 2.7459 4.8084l1.2309 3.5836-0.37874 2.0867-1.7517 2.1774-1.7517 0.99796c-0.24714 1.6971-0.0231 3.6588 0.0473 5.5342-0.26308 1.1329-0.65015 1.8885-1.0415 2.631l-0.18937 2.2228-1.799 2.2228-0.56809-0.0907-0.14204-6.26 0.3314-2.9939 0.51563-2.675 1.3784-0.57899 0.61509-1.9627c-1.1939-1.0652-2.1809-0.10386-2.8406 0.27218l-0.15367 0.90059c-0.14162 0.63079-0.70782 2.2552-1.515 3.561-0.57607-0.95719-1.1617-2.0583-1.598-3.6904l-0.13747-1.1714c-1.1743-0.46135-1.8494-0.66463-2.6558-0.0534 0.06784 0.71316-0.02678 1.498 0.42609 2.0413l1.4203 0.7258 0.56812 4.8538v6.8951z"
                fill="#8f6868" stroke="#000" stroke-width=".19578" />
        </g>
        <g stroke="#000">
            <path
                d="m96.888 143.02c0.77856-6.5e-4 1.5473-0.0444 2.1544-0.79957l-7.768-16.05 1.8348-1.0793 0.64407-0.84014-3.3083 1.3571-2.3857-4.5125 0.20345-0.58552-1.0643-0.3275s-0.73594 0.83477-0.70502 1.3229l0.5362-0.0254 2.1992 4.5974s-3.2363 1.5601-3.4018 1.7367c-0.16552 0.17661 0.83583 0.0845 0.83583 0.0845l2.548-0.85471z"
                fill="url(#linearGradient89)" stroke-width=".20116" />
            <path
                d="m99.293 143.11c-0.61423-5.2e-4 -1.2207-0.0355-1.6997-0.63961l6.1283-12.839-1.4475-0.86338-0.50813-0.67206 2.61 1.0856 1.8821-3.6097-0.1605-0.46838 0.83966-0.26198s0.5806 0.66776 0.55621 1.0582l-0.42302-0.0204-1.735 3.6776s2.5532 1.248 2.6838 1.3893c0.13058 0.14128-0.65941 0.0676-0.65941 0.0676l-2.0102-0.68371z"
                fill="url(#linearGradient90)" stroke-width=".1598" />
            <path d="m61.366 111.51 37.555-24.537 37.348 24.549-13.909 39.34-46.425 0.26663z" fill-opacity="0"
                stroke-width="10.05" style="mix-blend-mode:difference;paint-order:normal" />
        </g>
    </g>
</svg>